# xmcd CD database file
#
# Track frame offsets:
#	150
#	14400
#	37340
#	54945
#	78320
#	102470
#	119930
#	134892
#	147405
#
# Disc length: 2119 seconds
#
# Revision: 2
# Processed by: cddbd v1.5.2PL0 Copyright (c) Steve Scherf et al.
# Submitted via: CDex 1.70beta1
#
DISCID=8d084509
DTITLE=矢沢永吉 - STAR IN HIBIYA,THE Disc 2
DYEAR=1990
DGENRE=Rock
TTITLE0=真夜中のロックン・ロール
TTITLE1=ディスコティック
TTITLE2=ウイスキー・コーク
TTITLE3=恋の列車はリバプール発
TTITLE4=DAY,A
TTITLE5=安物の時計
TTITLE6=キザな野郎
TTITLE7=夏のフォトグラフ
TTITLE8=ライフ・イズ・ヴェイン
EXTD=YEAR: 1990
EXTT0=
EXTT1=
EXTT2=
EXTT3=
EXTT4=
EXTT5=
EXTT6=
EXTT7=
EXTT8=
PLAYORDER=
